<svg xmlns="http://www.w3.org/2000/svg" viewBox="0 0 32 32" fill="none">
  <defs>
    <linearGradient id="bg" x1="4" y1="2" x2="28" y2="30" gradientUnits="userSpaceOnUse">
      <stop stop-color="#00e5ff"/>
      <stop offset="1" stop-color="#0099cc"/>
    </linearGradient>
    <linearGradient id="glow" x1="8" y1="8" x2="24" y2="24" gradientUnits="userSpaceOnUse">
      <stop stop-color="#7ee8f7"/>
      <stop offset="1" stop-color="#00d4ee"/>
    </linearGradient>
  </defs>
  <rect width="32" height="32" rx="8" fill="url(#bg)"/>
  <path d="M9 11.5h14a1.5 1.5 0 0 1 1.5 1.5v11a1.5 1.5 0 0 1-1.5 1.5H9a1.5 1.5 0 0 1-1.5-1.5V13a1.5 1.5 0 0 1 1.5-1.5z" fill="#060d18" fill-opacity="0.92"/>
  <path d="M11.5 8.5v3M20.5 8.5v3" stroke="#7ee8f7" stroke-width="1.75" stroke-linecap="round"/>
  <path d="M9 13h14" stroke="#00d4ee" stroke-width="1.25" stroke-opacity="0.35"/>
  <circle cx="13" cy="17.5" r="1.25" fill="url(#glow)"/>
  <circle cx="16" cy="17.5" r="1.25" fill="url(#glow)"/>
  <circle cx="19" cy="17.5" r="1.25" fill="url(#glow)"/>
  <circle cx="13" cy="21" r="1.25" fill="url(#glow)" fill-opacity="0.65"/>
  <circle cx="16" cy="21" r="1.25" fill="url(#glow)" fill-opacity="0.65"/>
  <path d="M20.5 17.5 22.5 19.5 25.5 15.5" stroke="#7ee8f7" stroke-width="1.6" stroke-linecap="round" stroke-linejoin="round"/>
</svg>
